<svg width="373" height="373" fill="none" xmlns="http://www.w3.org/2000/svg"><path d="M86.38 169.817c-11.023-6.999-37.279-24.964-34.118-59.312C57.721 51.189 92.762 23.265 139.5 14c17.48-3.465 50.788-2.086 64.262-1.995 45.5 0 150.5 10.5 159 98.5 3.255 33.697-21.294 50.82-35.017 59.287a4.01 4.01 0 00-1.908 3.547l4.795 149.674a16.001 16.001 0 01-10.4 15.504L268 358l-154.458 1.261c-16.141.132-29.076-13.351-28.51-29.483 2.056-58.671 3.047-142.232 3.207-156.624.015-1.387-.688-2.594-1.859-3.337z" fill="#B48253" stroke="#694825" stroke-width="15"/><path d="M10.5 110.5C18 29 112.5 11.667 162 12c45.5 0 150.5 10.5 159 98.5 3.256 33.708-21.31 50.831-35.03 59.295a4.008 4.008 0 00-1.908 3.525l4.176 157.438c.417 15.749-12.236 28.742-27.991 28.742H71.539c-16.052 0-28.842-13.441-28.278-29.483 2.063-58.683 3.056-142.456 3.216-156.867.015-1.387-.688-2.594-1.859-3.338C33.594 162.813 7.34 144.848 10.5 110.5z" fill="#F7E6C0" stroke="#694825" stroke-width="15"/><circle cx="46" cy="90" r="11" fill="#EFC88D"/><circle cx="265" cy="295" r="4" fill="#EFC88D"/><circle cx="204.5" cy="340.5" r="4.5" fill="#EFC88D"/><circle cx="257" cy="318" r="6" fill="#EFC88D"/><circle cx="253.5" cy="338.5" r="8.5" fill="#EFC88D"/><circle cx="230" cy="340" r="6" fill="#EFC88D"/><circle cx="40.5" cy="116.5" r="8.5" fill="#EFC88D"/><circle cx="61.5" cy="110.5" r="7.5" fill="#EFC88D"/><circle cx="53.5" cy="139.5" r="4.5" fill="#EFC88D"/><circle cx="63" cy="69" r="7" fill="#EFC88D"/><circle cx="85" cy="50" r="4" fill="#EFC88D"/><circle cx="101" cy="199" r="19" fill="#694825"/><circle cx="97" cy="191" r="6" fill="#FAFAEA"/><circle cx="232" cy="199" r="19" fill="#694825"/><circle cx="228" cy="191" r="6" fill="#FAFAEA"/><path d="M147 209.5c.333 8.833 4.5 26.4 18.5 26 14-.4 17.833-17.5 18-26" stroke="#694825" stroke-width="6" stroke-linecap="round"/><ellipse cx="232" cy="237" rx="17" ry="12" fill="#FAFAEA"/><path d="M226 233l2.5 7.5M235 233l2.5 7.5" stroke="#694825" stroke-width="4" stroke-linecap="round"/><ellipse cx="99" cy="237" rx="17" ry="12" fill="#FAFAEA"/><path d="M93 233l2.5 7.5M102 233l2.5 7.5" stroke="#694825" stroke-width="4" stroke-linecap="round"/></svg>